Coordinates
version=1
nRows=4
nColumns=63
inDegrees=yes

Units are S.I. units (second, meters, Newtons, ...)
If the header above contains a line with 'inDegrees', this indicates whether rotational values are in degrees (yes) or radians (no).

endheader
time	pelvis_tilt	pelvis_list	pelvis_rotation	pelvis_tx	pelvis_ty	pelvis_tz	hip_flexion_r	hip_adduction_r	hip_rotation_r	knee_angle_r	knee_angle_r_beta	ankle_angle_r	subtalar_angle_r	mtp_angle_r	hip_flexion_l	hip_adduction_l	hip_rotation_l	knee_angle_l	knee_angle_l_beta	ankle_angle_l	subtalar_angle_l	mtp_angle_l	L5_S1_Flex_Ext	L5_S1_Lat_Bending	L5_S1_axial_rotation	L4_L5_Flex_Ext	L4_L5_Lat_Bending	L4_L5_axial_rotation	L3_L4_Flex_Ext	L3_L4_Lat_Bending	L3_L4_axial_rotation	L2_L3_Flex_Ext	L2_L3_Lat_Bending	L2_L3_axial_rotation	L1_L2_Flex_Ext	L1_L2_Lat_Bending	L1_L2_axial_rotation	L1_T12_Flex_Ext	L1_T12_Lat_Bending	L1_T12_axial_rotation	Abs_r3	Abs_r2	Abs_r1	Abs_t1	Abs_t2	neck_flexion	neck_bending	neck_rotation	arm_flex_r	arm_add_r	arm_rot_r	elbow_flex_r	pro_sup_r	wrist_flex_r	wrist_dev_r	arm_flex_l	arm_add_l	arm_rot_l	elbow_flex_l	pro_sup_l	wrist_flex_l	wrist_dev_l
      0.00000000	     -6.10498822	     -2.28460169	     93.24867754	      0.24199542	      0.73913095	      0.72540157	      3.65579580	     -3.18575992	    -14.58495620	      4.15263551	      0.07247716	     28.55486882	     12.09263400	      0.00000000	      4.71874158	      3.22231374	      2.65243311	      1.79327393	      0.03129853	     27.37364990	      4.76067281	      0.00000000	      0.48653705	     -0.23645404	     -1.50192693	      0.90354795	     -0.31448387	     -1.59579737	      0.79933172	     -0.57491435	     -1.59579737	      0.55606319	     -0.57491435	     -1.31418607	      0.45179830	     -0.48217708	     -1.22031563	      0.27800727	     -0.36626731	     -1.12644520	      3.47528548	     -2.67481540	     -8.35326703	      0.00000000	      0.00000000	     28.15049364	      5.64149895	     19.44607639	     16.11906015	     -9.85414334	     67.44297139	     53.27987840	     28.83053720	      1.26742733	     27.10085448	      1.52152673	    -14.19750523	     38.21373057	     63.52896031	     86.01647107	     14.39412842	     11.75231869
      0.01666667	     -6.36996608	     -2.13677233	     93.03725581	      0.24285195	      0.73897827	      0.72589822	      3.77003862	     -3.58641621	    -15.80945975	      5.42088164	      0.09461223	     27.02575059	     11.09327048	      0.00000000	      4.54374718	      3.40665151	      2.42012141	      2.14013778	      0.03735245	     26.31359453	      4.56425483	      0.00000000	      0.41870975	     -0.29114688	     -1.31641722	      0.77758588	     -0.38722536	     -1.39869330	      0.68789825	     -0.70789453	     -1.39869330	      0.47854337	     -0.70789453	     -1.15186507	      0.38881387	     -0.59370673	     -1.06958899	      0.23925075	     -0.45098652	     -0.98731292	      2.99080188	     -3.29351178	     -7.32151768	      0.00000000	      0.00000000	     27.96204549	      5.87732516	     17.66529114	     13.85418023	     -9.99128882	     63.42308331	     54.21986307	     28.62078893	      0.94761733	     25.54518003	      0.67557817	    -13.70004554	     36.23584329	     64.22315017	     83.93011895	     14.80784525	     12.92900573
      0.03333333	     -6.58574439	     -2.04234432	     92.69444073	      0.24360591	      0.73906104	      0.72622756	      3.89896659	     -3.87564838	    -16.07757626	      6.20664509	      0.10832639	     25.85303125	      9.93886810	      0.00000000	      4.42636181	      3.57009673	      2.11531032	      2.36391944	      0.04125818	     25.45553200	      4.25672502	      0.00000000	      0.37620192	     -0.33727309	     -1.03795269	      0.69864458	     -0.44857321	     -1.10282473	      0.61806213	     -0.82004580	     -1.10282473	      0.42996117	     -0.82004580	     -0.90820860	      0.34934110	     -0.68776729	     -0.84333656	      0.21496178	     -0.52243602	     -0.77846452	      2.68717269	     -3.81530069	     -5.77278147	      0.00000000	      0.00000000	     27.74239267	      5.50225169	     15.19461220	     11.39046742	    -10.00647464	     58.57404041	     55.19559848	     29.13033517	      0.29032800	     25.22052432	      0.75015545	    -13.41263219	     36.19554420	     64.50766103	     80.71595453	     14.66526899	     15.19737477
      0.05000000	     -6.58164801	     -1.86756305	     92.57639151	      0.24353138	      0.73941201	      0.72636716	      3.93454000	     -3.96647667	    -16.23072090	      6.82537517	      0.11912527	     25.29010000	      9.28069687	      0.00000000	      4.23539862	      3.55919241	      2.00523912	      2.49585216	      0.04356084	     25.13690090	      4.14838607	      0.00000000	      0.33089719	     -0.33432461	     -0.96465191	      0.61450917	     -0.44465172	     -1.02494265	      0.54363099	     -0.81287684	     -1.02494265	      0.37818240	     -0.81287684	     -0.84407042	      0.30727113	     -0.68175473	     -0.78377968	      0.18907465	     -0.51786881	     -0.72348893	      2.36356554	     -3.78194680	     -5.36510452	      0.00000000	      0.00000000	     27.52402688	      5.46405145	     14.80721281	     10.30273810	    -10.08490057	     56.51235506	     55.71733526	     29.27437556	      0.33958519	     24.44200338	      0.30785073	    -13.01358229	     35.45854410	     64.63773307	     79.48079889	     13.91461163	     14.93640809
